<svg xmlns="http://www.w3.org/2000/svg" width="1960" height="900" viewBox="0 0 1960 900" font-family="-apple-system, BlinkMacSystemFont, Segoe UI, sans-serif">
<defs>
<filter id="sh" x="-20%" y="-20%" width="140%" height="140%"><feDropShadow dx="0" dy="2" stdDeviation="4" flood-color="#000" flood-opacity="0.45"/></filter>
<marker id="aSolid" viewBox="0 0 10 10" refX="9" refY="5" markerWidth="7" markerHeight="7" orient="auto-start-reverse"><path d="M0 0L10 5L0 10z" fill="#58A6FF"/></marker>
<marker id="aDash" viewBox="0 0 10 10" refX="9" refY="5" markerWidth="7" markerHeight="7" orient="auto-start-reverse"><path d="M0 0L10 5L0 10z" fill="#8B949E"/></marker>
</defs>
<rect width="1960" height="900" fill="#0D1117" rx="10"/>
<text x="40" y="56" font-size="26" font-weight="700" fill="#E6EDF3">WC-Tournament — runtime architecture</text>
<text x="40" y="84" font-size="14" fill="#8B949E">Request path (solid) flows browser → edge → app → data. Integrations (dashed) are off the request path.</text>
<rect x="24" y="430" width="232" height="150" rx="16" fill="none" stroke="#6366F1" stroke-width="1.5" stroke-dasharray="8 5" opacity="0.55"/>
<text x="40" y="454" font-size="13" font-weight="600" fill="#6366F1" opacity="0.95">Client</text>
<rect x="288" y="430" width="496" height="150" rx="16" fill="none" stroke="#22D3EE" stroke-width="1.5" stroke-dasharray="8 5" opacity="0.55"/>
<text x="304" y="454" font-size="13" font-weight="600" fill="#22D3EE" opacity="0.95">Edge (prod host)</text>
<rect x="816" y="430" width="840" height="150" rx="16" fill="none" stroke="#4A90D9" stroke-width="1.5" stroke-dasharray="8 5" opacity="0.55"/>
<text x="832" y="454" font-size="13" font-weight="600" fill="#4A90D9" opacity="0.95">App host · docker-compose  wc2026</text>
<rect x="816" y="120" width="1120" height="150" rx="16" fill="none" stroke="#A78BFA" stroke-width="1.5" stroke-dasharray="8 5" opacity="0.55"/>
<text x="832" y="144" font-size="13" font-weight="600" fill="#A78BFA" opacity="0.95">External services</text>
<line x1="250.0" y1="503.0" x2="308.0" y2="503.0" stroke="#58A6FF" stroke-width="2" marker-end="url(#aSolid)"/>
<rect x="252.0" y="491.0" width="54.0" height="24" rx="7" fill="#21262D" stroke="#30363D"/><text x="279.0" y="507.0" text-anchor="middle" font-size="12" fill="#E6EDF3">HTTPS</text>
<line x1="518.0" y1="503.0" x2="548.0" y2="503.0" stroke="#58A6FF" stroke-width="2" marker-end="url(#aSolid)"/>
<rect x="513.2" y="491.0" width="39.6" height="24" rx="7" fill="#21262D" stroke="#30363D"/><text x="533.0" y="507.0" text-anchor="middle" font-size="12" fill="#E6EDF3">TLS</text>
<line x1="758.0" y1="503.0" x2="836.0" y2="503.0" stroke="#58A6FF" stroke-width="2" marker-end="url(#aSolid)"/>
<rect x="770.0" y="491.0" width="54.0" height="24" rx="7" fill="#21262D" stroke="#30363D"/><text x="797.0" y="507.0" text-anchor="middle" font-size="12" fill="#E6EDF3">proxy</text>
<line x1="1046.0" y1="503.0" x2="1096.0" y2="503.0" stroke="#58A6FF" stroke-width="2" marker-end="url(#aSolid)"/>
<rect x="1047.6" y="491.0" width="46.8" height="24" rx="7" fill="#21262D" stroke="#30363D"/><text x="1071.0" y="507.0" text-anchor="middle" font-size="12" fill="#E6EDF3">/api</text>
<line x1="1306.0" y1="503.0" x2="1396.0" y2="503.0" stroke="#58A6FF" stroke-width="2" marker-end="url(#aSolid)"/>
<rect x="1331.2" y="491.0" width="39.6" height="24" rx="7" fill="#21262D" stroke="#30363D"/><text x="1351.0" y="507.0" text-anchor="middle" font-size="12" fill="#E6EDF3">SQL</text>
<line x1="1121.0" y1="455.0" x2="941.0" y2="241.0" stroke="#8B949E" stroke-width="2" stroke-dasharray="7 4" marker-end="url(#aDash)"/>
<rect x="1007.6" y="336.0" width="46.8" height="24" rx="7" fill="#21262D" stroke="#30363D"/><text x="1031.0" y="352.0" text-anchor="middle" font-size="12" fill="#E6EDF3">OIDC</text>
<line x1="1201.0" y1="455.0" x2="1201.0" y2="241.0" stroke="#8B949E" stroke-width="2" stroke-dasharray="7 4" marker-end="url(#aDash)"/>
<rect x="1177.6" y="336.0" width="46.8" height="24" rx="7" fill="#21262D" stroke="#30363D"/><text x="1201.0" y="352.0" text-anchor="middle" font-size="12" fill="#E6EDF3">poll</text>
<line x1="1281.0" y1="455.0" x2="1501.0" y2="241.0" stroke="#8B949E" stroke-width="2" stroke-dasharray="7 4" marker-end="url(#aDash)"/>
<rect x="1367.6" y="336.0" width="46.8" height="24" rx="7" fill="#21262D" stroke="#30363D"/><text x="1391.0" y="352.0" text-anchor="middle" font-size="12" fill="#E6EDF3">push</text>
<line x1="1305.0" y1="455.0" x2="1761.0" y2="241.0" stroke="#8B949E" stroke-width="2" stroke-dasharray="7 4" marker-end="url(#aDash)"/>
<rect x="1509.6" y="336.0" width="46.8" height="24" rx="7" fill="#21262D" stroke="#30363D"/><text x="1533.0" y="352.0" text-anchor="middle" font-size="12" fill="#E6EDF3">WIF</text>
<g filter="url(#sh)">
<rect x="40" y="455" width="210" height="96" rx="12" fill="#161B22" stroke="#6366F1" stroke-width="1.6"/>
<rect x="40" y="455" width="5" height="96" rx="2.5" fill="#6366F1"/>
</g>
<circle cx="72" cy="485" r="14" fill="#6366F1" opacity="0.18"/>
<text x="72" y="490" text-anchor="middle" font-size="15">🌐</text>
<text x="96" y="483" font-size="16" font-weight="700" fill="#E6EDF3">Browser</text>
<text x="60" y="513" font-size="12.5" fill="#8B949E">React SPA · UA / EN</text>
<rect x="60" y="523" width="102" height="20" rx="5" fill="#21262D" stroke="#6366F1" stroke-opacity="0.4"/>
<text x="111.0" y="537" text-anchor="middle" font-size="11" fill="#6366F1">mobile-first</text>
<g filter="url(#sh)">
<rect x="308" y="455" width="210" height="96" rx="12" fill="#161B22" stroke="#22D3EE" stroke-width="1.6"/>
<rect x="308" y="455" width="5" height="96" rx="2.5" fill="#22D3EE"/>
</g>
<circle cx="340" cy="485" r="14" fill="#22D3EE" opacity="0.18"/>
<text x="340" y="490" text-anchor="middle" font-size="15">☁️</text>
<text x="364" y="483" font-size="16" font-weight="700" fill="#E6EDF3">Cloudflare</text>
<text x="328" y="513" font-size="12.5" fill="#8B949E">CDN · TLS · WAF</text>
<rect x="328" y="523" width="53" height="20" rx="5" fill="#21262D" stroke="#22D3EE" stroke-opacity="0.4"/>
<text x="354.5" y="537" text-anchor="middle" font-size="11" fill="#22D3EE">HTTPS</text>
<g filter="url(#sh)">
<rect x="548" y="455" width="210" height="96" rx="12" fill="#161B22" stroke="#22D3EE" stroke-width="1.6"/>
<rect x="548" y="455" width="5" height="96" rx="2.5" fill="#22D3EE"/>
</g>
<circle cx="580" cy="485" r="14" fill="#22D3EE" opacity="0.18"/>
<text x="580" y="490" text-anchor="middle" font-size="15">🔀</text>
<text x="604" y="483" font-size="16" font-weight="700" fill="#E6EDF3">HAProxy</text>
<text x="568" y="513" font-size="12.5" fill="#8B949E">reverse proxy</text>
<rect x="568" y="523" width="102" height="20" rx="5" fill="#21262D" stroke="#22D3EE" stroke-opacity="0.4"/>
<text x="619.0" y="537" text-anchor="middle" font-size="11" fill="#22D3EE">:443 → :8080</text>
<g filter="url(#sh)">
<rect x="836" y="455" width="210" height="96" rx="12" fill="#161B22" stroke="#4A90D9" stroke-width="1.6"/>
<rect x="836" y="455" width="5" height="96" rx="2.5" fill="#4A90D9"/>
</g>
<circle cx="868" cy="485" r="14" fill="#4A90D9" opacity="0.18"/>
<text x="868" y="490" text-anchor="middle" font-size="15">🖥️</text>
<text x="892" y="483" font-size="16" font-weight="700" fill="#E6EDF3">frontend</text>
<text x="856" y="513" font-size="12.5" fill="#8B949E">nginx · SPA + /api proxy</text>
<rect x="856" y="523" width="81" height="20" rx="5" fill="#21262D" stroke="#4A90D9" stroke-opacity="0.4"/>
<text x="896.5" y="537" text-anchor="middle" font-size="11" fill="#4A90D9">nginx :80</text>
<g filter="url(#sh)">
<rect x="1096" y="455" width="210" height="96" rx="12" fill="#161B22" stroke="#4A90D9" stroke-width="1.6"/>
<rect x="1096" y="455" width="5" height="96" rx="2.5" fill="#4A90D9"/>
</g>
<circle cx="1128" cy="485" r="14" fill="#4A90D9" opacity="0.18"/>
<text x="1128" y="490" text-anchor="middle" font-size="15">⚙️</text>
<text x="1152" y="483" font-size="16" font-weight="700" fill="#E6EDF3">backend</text>
<text x="1116" y="513" font-size="12.5" fill="#8B949E">Go · Gin API + jobs</text>
<rect x="1116" y="523" width="81" height="20" rx="5" fill="#21262D" stroke="#4A90D9" stroke-opacity="0.4"/>
<text x="1156.5" y="537" text-anchor="middle" font-size="11" fill="#4A90D9">Gin :8080</text>
<g filter="url(#sh)">
<rect x="1396" y="455" width="210" height="96" rx="12" fill="#161B22" stroke="#2DD4BF" stroke-width="1.6"/>
<rect x="1396" y="455" width="5" height="96" rx="2.5" fill="#2DD4BF"/>
</g>
<circle cx="1428" cy="485" r="14" fill="#2DD4BF" opacity="0.18"/>
<text x="1428" y="490" text-anchor="middle" font-size="15">🗄️</text>
<text x="1452" y="483" font-size="16" font-weight="700" fill="#E6EDF3">db</text>
<text x="1416" y="513" font-size="12.5" fill="#8B949E">Postgres 17</text>
<rect x="1416" y="523" width="81" height="20" rx="5" fill="#21262D" stroke="#2DD4BF" stroke-opacity="0.4"/>
<text x="1456.5" y="537" text-anchor="middle" font-size="11" fill="#2DD4BF">pgx :5432</text>
<g filter="url(#sh)">
<rect x="836" y="145" width="210" height="96" rx="12" fill="#161B22" stroke="#A78BFA" stroke-width="1.6"/>
<rect x="836" y="145" width="5" height="96" rx="2.5" fill="#A78BFA"/>
</g>
<circle cx="868" cy="175" r="14" fill="#A78BFA" opacity="0.18"/>
<text x="868" y="180" text-anchor="middle" font-size="15">🔑</text>
<text x="892" y="173" font-size="16" font-weight="700" fill="#E6EDF3">Google OAuth</text>
<text x="856" y="203" font-size="12.5" fill="#8B949E">OIDC sign-in</text>
<rect x="856" y="213" width="60" height="20" rx="5" fill="#21262D" stroke="#A78BFA" stroke-opacity="0.4"/>
<text x="886.0" y="227" text-anchor="middle" font-size="11" fill="#A78BFA">OAuth2</text>
<g filter="url(#sh)">
<rect x="1096" y="145" width="210" height="96" rx="12" fill="#161B22" stroke="#A78BFA" stroke-width="1.6"/>
<rect x="1096" y="145" width="5" height="96" rx="2.5" fill="#A78BFA"/>
</g>
<circle cx="1128" cy="175" r="14" fill="#A78BFA" opacity="0.18"/>
<text x="1128" y="180" text-anchor="middle" font-size="15">🏟️</text>
<text x="1152" y="173" font-size="16" font-weight="700" fill="#E6EDF3">FIFA API</text>
<text x="1116" y="203" font-size="12.5" fill="#8B949E">calendar · live scores</text>
<rect x="1116" y="213" width="130" height="20" rx="5" fill="#21262D" stroke="#A78BFA" stroke-opacity="0.4"/>
<text x="1181.0" y="227" text-anchor="middle" font-size="11" fill="#A78BFA">poll 30s / daily</text>
<g filter="url(#sh)">
<rect x="1396" y="145" width="210" height="96" rx="12" fill="#161B22" stroke="#A78BFA" stroke-width="1.6"/>
<rect x="1396" y="145" width="5" height="96" rx="2.5" fill="#A78BFA"/>
</g>
<circle cx="1428" cy="175" r="14" fill="#A78BFA" opacity="0.18"/>
<text x="1428" y="180" text-anchor="middle" font-size="15">✈️</text>
<text x="1452" y="173" font-size="16" font-weight="700" fill="#E6EDF3">Telegram</text>
<text x="1416" y="203" font-size="12.5" fill="#8B949E">Bot API push</text>
<rect x="1416" y="213" width="130" height="20" rx="5" fill="#21262D" stroke="#A78BFA" stroke-opacity="0.4"/>
<text x="1481.0" y="227" text-anchor="middle" font-size="11" fill="#A78BFA">results · digest</text>
<g filter="url(#sh)">
<rect x="1656" y="145" width="210" height="96" rx="12" fill="#161B22" stroke="#A78BFA" stroke-width="1.6"/>
<rect x="1656" y="145" width="5" height="96" rx="2.5" fill="#A78BFA"/>
</g>
<circle cx="1688" cy="175" r="14" fill="#A78BFA" opacity="0.18"/>
<text x="1688" y="180" text-anchor="middle" font-size="15">🤖</text>
<text x="1712" y="173" font-size="16" font-weight="700" fill="#E6EDF3">Gemini</text>
<text x="1676" y="203" font-size="12.5" fill="#8B949E">Vertex AI · 2.5-flash</text>
<rect x="1676" y="213" width="140" height="20" rx="5" fill="#21262D" stroke="#A78BFA" stroke-opacity="0.4"/>
<text x="1746.0" y="227" text-anchor="middle" font-size="11" fill="#A78BFA">keyless WIF · opt-in</text>
<line x1="40" y1="760" x2="92" y2="760" stroke="#58A6FF" stroke-width="2" marker-end="url(#aSolid)"/>
<text x="100" y="764" font-size="13" fill="#8B949E">request / data path</text>
<line x1="300" y1="760" x2="352" y2="760" stroke="#8B949E" stroke-width="2" stroke-dasharray="7 4" marker-end="url(#aDash)"/>
<text x="360" y="764" font-size="13" fill="#8B949E">integration (off request path)</text>
<text x="660" y="764" font-size="13" fill="#8B949E">Background jobs in backend: FIFA sync · scoring · Telegram announce/remind/digest · bonus resolution.</text>
</svg>