<svg xmlns="http://www.w3.org/2000/svg" width="1680" height="720" viewBox="0 0 1680 720" font-family="-apple-system, BlinkMacSystemFont, Segoe UI, sans-serif">
<defs>
<filter id="sh" x="-20%" y="-20%" width="140%" height="140%"><feDropShadow dx="0" dy="2" stdDeviation="4" flood-color="#000" flood-opacity="0.45"/></filter>
<marker id="aS" viewBox="0 0 10 10" refX="9" refY="5" markerWidth="7" markerHeight="7" orient="auto-start-reverse"><path d="M0 0L10 5L0 10z" fill="#58A6FF"/></marker>
<marker id="aD" viewBox="0 0 10 10" refX="9" refY="5" markerWidth="7" markerHeight="7" orient="auto-start-reverse"><path d="M0 0L10 5L0 10z" fill="#8B949E"/></marker>
</defs>
<rect width="1680" height="720" fill="#0D1117" rx="10"/>
<text x="40" y="54" font-size="26" font-weight="700" fill="#E6EDF3">WC-Tournament — CI / CD &amp; releases</text>
<text x="40" y="82" font-size="14" fill="#8B949E">Every push/PR runs CI gates. A v* tag builds multi-arch images to GHCR and cuts a GitHub Release. Prod pulls.</text>
<line x1="250.0" y1="348.0" x2="330.0" y2="348.0" stroke="#58A6FF" stroke-width="2" marker-end="url(#aS)"/>
<rect x="252.2" y="336.0" width="75.6" height="24" rx="7" fill="#21262D" stroke="#30363D"/>
<text x="290.0" y="352.0" text-anchor="middle" font-size="12" fill="#E6EDF3">git push</text>
<line x1="425.0" y1="300.0" x2="640.0" y2="175.0" stroke="#58A6FF" stroke-width="2" marker-end="url(#aS)"/>
<rect x="491.1" y="225.5" width="82.8" height="24" rx="7" fill="#21262D" stroke="#30363D"/>
<text x="532.5" y="241.5" text-anchor="middle" font-size="12" fill="#E6EDF3">push · PR</text>
<line x1="425.0" y1="396.0" x2="640.0" y2="560.0" stroke="#58A6FF" stroke-width="2" marker-end="url(#aS)"/>
<rect x="501.9" y="466.0" width="61.2" height="24" rx="7" fill="#21262D" stroke="#30363D"/>
<text x="532.5" y="482.0" text-anchor="middle" font-size="12" fill="#E6EDF3">tag v*</text>
<line x1="1020.0" y1="630.0" x2="1110.0" y2="518.0" stroke="#58A6FF" stroke-width="2" marker-end="url(#aS)"/>
<rect x="1012.8" y="562.0" width="104.4" height="24" rx="7" fill="#21262D" stroke="#30363D"/>
<text x="1065.0" y="578.0" text-anchor="middle" font-size="12" fill="#E6EDF3">build · push</text>
<line x1="1020.0" y1="650.0" x2="1110.0" y2="630.0" stroke="#58A6FF" stroke-width="2" marker-end="url(#aS)"/>
<rect x="1012.8" y="628.0" width="104.4" height="24" rx="7" fill="#21262D" stroke="#30363D"/>
<text x="1065.0" y="644.0" text-anchor="middle" font-size="12" fill="#E6EDF3">notes · SBOM</text>
<line x1="1320.0" y1="490.0" x2="1485.0" y2="396.0" stroke="#8B949E" stroke-width="2" stroke-dasharray="7 4" marker-end="url(#aD)"/>
<rect x="1357.5" y="431.0" width="90.0" height="24" rx="7" fill="#21262D" stroke="#30363D"/>
<text x="1402.5" y="447.0" text-anchor="middle" font-size="12" fill="#E6EDF3">pull image</text>
<line x1="530.0" y1="320.0" x2="1380.0" y2="320.0" stroke="#8B949E" stroke-width="2" stroke-dasharray="7 4" marker-end="url(#aD)"/>
<rect x="852.4" y="308.0" width="205.2" height="24" rx="7" fill="#21262D" stroke="#30363D"/>
<text x="955.0" y="324.0" text-anchor="middle" font-size="12" fill="#E6EDF3">git pull + build (current)</text>
<g filter="url(#sh)"><rect x="40" y="300" width="210" height="96" rx="12" fill="#161B22" stroke="#6366F1" stroke-width="1.6"/><rect x="40" y="300" width="5" height="96" rx="2.5" fill="#6366F1"/></g>
<circle cx="72" cy="330" r="14" fill="#6366F1" opacity="0.18"/>
<text x="72" y="335" text-anchor="middle" font-size="15">💻</text>
<text x="96" y="328" font-size="16" font-weight="700" fill="#E6EDF3">Developer</text>
<text x="60" y="358" font-size="12.5" fill="#8B949E">commit &amp; push</text>
<rect x="60" y="368" width="109" height="20" rx="5" fill="#21262D" stroke="#6366F1" stroke-opacity="0.4"/>
<text x="114.5" y="382" text-anchor="middle" font-size="11" fill="#6366F1">feat/* → main</text>
<g filter="url(#sh)"><rect x="330" y="300" width="210" height="96" rx="12" fill="#161B22" stroke="#22D3EE" stroke-width="1.6"/><rect x="330" y="300" width="5" height="96" rx="2.5" fill="#22D3EE"/></g>
<circle cx="362" cy="330" r="14" fill="#22D3EE" opacity="0.18"/>
<text x="362" y="335" text-anchor="middle" font-size="15">🐙</text>
<text x="386" y="328" font-size="16" font-weight="700" fill="#E6EDF3">GitHub</text>
<text x="350" y="358" font-size="12.5" fill="#8B949E">source of truth</text>
<rect x="350" y="368" width="123" height="20" rx="5" fill="#21262D" stroke="#22D3EE" stroke-opacity="0.4"/>
<text x="411.5" y="382" text-anchor="middle" font-size="11" fill="#22D3EE">branches + tags</text>
<g filter="url(#sh)"><rect x="640" y="100" width="380" height="188" rx="14" fill="#161B22" stroke="#4A90D9" stroke-width="1.8"/><rect x="640" y="100" width="5" height="188" rx="2.5" fill="#4A90D9"/></g>
<text x="664" y="134" font-size="17" font-weight="700" fill="#E6EDF3">CI — ci.yml</text>
<rect x="870" y="118" width="130" height="22" rx="6" fill="#21262D" stroke="#4A90D9" stroke-opacity="0.5"/>
<text x="935" y="133" text-anchor="middle" font-size="11.5" fill="#4A90D9">push · PR</text>
<rect x="664" y="154" width="78" height="26" rx="7" fill="#21262D" stroke="#4A90D9" stroke-opacity="0.45"/>
<text x="703.0" y="171" text-anchor="middle" font-size="12.5" fill="#E6EDF3">backend</text>
<text x="752" y="171" font-size="11.5" fill="#8B949E">vet · race tests · build</text>
<rect x="664" y="188" width="86" height="26" rx="7" fill="#21262D" stroke="#4A90D9" stroke-opacity="0.45"/>
<text x="707.0" y="205" text-anchor="middle" font-size="12.5" fill="#E6EDF3">frontend</text>
<text x="760" y="205" font-size="11.5" fill="#8B949E">tsc · vite build</text>
<rect x="664" y="222" width="86" height="26" rx="7" fill="#21262D" stroke="#4A90D9" stroke-opacity="0.45"/>
<text x="707.0" y="239" text-anchor="middle" font-size="12.5" fill="#E6EDF3">security</text>
<text x="760" y="239" font-size="11.5" fill="#8B949E">govulncheck · gitleaks</text>
<rect x="664" y="256" width="70" height="26" rx="7" fill="#21262D" stroke="#4A90D9" stroke-opacity="0.45"/>
<text x="699.0" y="273" text-anchor="middle" font-size="12.5" fill="#E6EDF3">docker</text>
<text x="744" y="273" font-size="11.5" fill="#8B949E">build · trivy · smoke</text>
<g filter="url(#sh)"><rect x="640" y="540" width="380" height="140" rx="14" fill="#161B22" stroke="#4A90D9" stroke-width="1.8"/><rect x="640" y="540" width="5" height="140" rx="2.5" fill="#4A90D9"/></g>
<text x="664" y="574" font-size="17" font-weight="700" fill="#E6EDF3">Release — release.yml</text>
<rect x="870" y="558" width="130" height="22" rx="6" fill="#21262D" stroke="#4A90D9" stroke-opacity="0.5"/>
<text x="935" y="573" text-anchor="middle" font-size="11.5" fill="#4A90D9">tag v*</text>
<rect x="664" y="594" width="62" height="26" rx="7" fill="#21262D" stroke="#4A90D9" stroke-opacity="0.45"/>
<text x="695.0" y="611" text-anchor="middle" font-size="12.5" fill="#E6EDF3">build</text>
<text x="736" y="611" font-size="11.5" fill="#8B949E">multi-arch amd64 + arm64</text>
<rect x="664" y="628" width="78" height="26" rx="7" fill="#21262D" stroke="#4A90D9" stroke-opacity="0.45"/>
<text x="703.0" y="645" text-anchor="middle" font-size="12.5" fill="#E6EDF3">publish</text>
<text x="752" y="645" font-size="11.5" fill="#8B949E">GHCR + SBOM + Release</text>
<g filter="url(#sh)"><rect x="1110" y="470" width="210" height="96" rx="12" fill="#161B22" stroke="#2DD4BF" stroke-width="1.6"/><rect x="1110" y="470" width="5" height="96" rx="2.5" fill="#2DD4BF"/></g>
<circle cx="1142" cy="500" r="14" fill="#2DD4BF" opacity="0.18"/>
<text x="1142" y="505" text-anchor="middle" font-size="15">📦</text>
<text x="1166" y="498" font-size="16" font-weight="700" fill="#E6EDF3">GHCR (private)</text>
<text x="1130" y="528" font-size="12.5" fill="#8B949E">multi-arch images</text>
<rect x="1130" y="538" width="144" height="20" rx="5" fill="#21262D" stroke="#2DD4BF" stroke-opacity="0.4"/>
<text x="1202.0" y="552" text-anchor="middle" font-size="11" fill="#2DD4BF">backend + frontend</text>
<g filter="url(#sh)"><rect x="1110" y="600" width="210" height="96" rx="12" fill="#161B22" stroke="#A78BFA" stroke-width="1.6"/><rect x="1110" y="600" width="5" height="96" rx="2.5" fill="#A78BFA"/></g>
<circle cx="1142" cy="630" r="14" fill="#A78BFA" opacity="0.18"/>
<text x="1142" y="635" text-anchor="middle" font-size="15">🏷️</text>
<text x="1166" y="628" font-size="16" font-weight="700" fill="#E6EDF3">GitHub Release</text>
<text x="1130" y="658" font-size="12.5" fill="#8B949E">auto notes + SBOM</text>
<rect x="1130" y="668" width="123" height="20" rx="5" fill="#21262D" stroke="#A78BFA" stroke-opacity="0.4"/>
<text x="1191.5" y="682" text-anchor="middle" font-size="11" fill="#A78BFA">prerelease v0.*</text>
<g filter="url(#sh)"><rect x="1380" y="300" width="210" height="96" rx="12" fill="#161B22" stroke="#4A90D9" stroke-width="1.6"/><rect x="1380" y="300" width="5" height="96" rx="2.5" fill="#4A90D9"/></g>
<circle cx="1412" cy="330" r="14" fill="#4A90D9" opacity="0.18"/>
<text x="1412" y="335" text-anchor="middle" font-size="15">🚀</text>
<text x="1436" y="328" font-size="16" font-weight="700" fill="#E6EDF3">Prod host</text>
<text x="1400" y="358" font-size="12.5" fill="#8B949E">docker compose</text>
<rect x="1400" y="368" width="158" height="20" rx="5" fill="#21262D" stroke="#4A90D9" stroke-opacity="0.4"/>
<text x="1479.0" y="382" text-anchor="middle" font-size="11" fill="#4A90D9">wc2026.mtgrd-das.app</text>
<line x1="40" y1="690" x2="92" y2="690" stroke="#58A6FF" stroke-width="2" marker-end="url(#aS)"/>
<text x="100" y="694" font-size="13" fill="#8B949E">automated pipeline</text>
<line x1="270" y1="690" x2="322" y2="690" stroke="#8B949E" stroke-width="2" stroke-dasharray="7 4" marker-end="url(#aD)"/>
<text x="330" y="694" font-size="13" fill="#8B949E">deploy to prod (image pull, or git pull + compose build today)</text>
</svg>